<?xml version="1.0" encoding="UTF-8"?>
<svg id="uuid-b3e94da1-40ef-4157-be18-b2252e9ad53e" data-name="Layer_2" xmlns="http://www.w3.org/2000/svg" xmlns:xlink="http://www.w3.org/1999/xlink" viewBox="0 0 600.02 117.09">
  <defs>
    <clipPath id="uuid-4f913ff7-0955-41e9-914e-90a319e9569e">
      <rect x="341.11" width="258.91" height="117.09" style="fill: none;"/>
    </clipPath>
  </defs>
  <g id="uuid-b37f5e2d-5ae9-4ecd-b840-1fbac6c1b4ff" data-name="Layer_1">
    <g>
      <rect width="600" height="117.09" style="fill: #002a54;"/>
      <g style="clip-path: url(#uuid-4f913ff7-0955-41e9-914e-90a319e9569e);">
        <g>
          <g>
            <rect x="354.99" y="93.5" width="219.55" height="17.18" rx="8.59" ry="8.59" style="fill: #ffa32a;"/>
            <rect x="589.81" y="93.5" width="99.53" height="17.18" rx="8.59" ry="8.59" style="fill: none; stroke: #fff; stroke-miterlimit: 10;"/>
          </g>
          <g>
            <rect x="463" y="-29.41" width="17.18" height="146.55" rx="8.59" ry="8.59" transform="translate(427.73 515.45) rotate(-90)" style="fill: none; stroke: #fff; stroke-miterlimit: 10;"/>
            <rect x="668.97" y="-72.12" width="17.18" height="231.97" rx="8.59" ry="8.59" transform="translate(633.7 721.42) rotate(-90)" style="fill: #ffa32a;"/>
          </g>
          <g>
            <rect x="454.2" y="-73.59" width="17.18" height="176.67" rx="8.59" ry="8.59" transform="translate(448.05 477.54) rotate(-90)" style="fill: #fff;"/>
            <rect x="616.59" y="-48.8" width="17.18" height="127.08" rx="8.59" ry="8.59" transform="translate(610.43 639.92) rotate(-90)" style="fill: #fff;"/>
          </g>
          <g>
            <rect x="448.53" y="37.61" width="17.18" height="70.73" rx="8.59" ry="8.59" transform="translate(384.14 530.1) rotate(-90)" style="fill: #fff;"/>
            <rect x="533.52" y="37.61" width="17.18" height="70.73" rx="8.59" ry="8.59" transform="translate(469.14 615.09) rotate(-90)" style="fill: #fff;"/>
            <rect x="690.94" y="-34.81" width="17.18" height="215.57" rx="8.59" ry="8.59" transform="translate(626.55 772.5) rotate(-90)" style="fill: none; stroke: #fff; stroke-miterlimit: 10;"/>
          </g>
        </g>
      </g>
    </g>
  </g>
</svg>