<?xml version="1.0" encoding="UTF-8"?>
<svg id="uuid-956a85da-deda-4564-8016-42f5cfacdd70" data-name="Layer 1" xmlns="http://www.w3.org/2000/svg" xmlns:xlink="http://www.w3.org/1999/xlink" viewBox="0 0 1024 152">
  <defs>
    <clipPath id="uuid-5dd5da0c-8215-470c-aec5-9f96adac7fd9">
      <rect width="1024" height="152" style="fill: none;"/>
    </clipPath>
  </defs>
  <g style="clip-path: url(#uuid-5dd5da0c-8215-470c-aec5-9f96adac7fd9);">
    <rect x="-4.27" y="-4.95" width="1033.44" height="164.53" style="fill: #fafaff;"/>
    <g>
      <rect x="616.06" y="98.94" width="197.66" height="23.55" rx="11.68" ry="11.68" style="fill: none; stroke: #000; stroke-miterlimit: 10; stroke-width: 1.21px;"/>
      <text transform="translate(621.66 44.45)"><tspan style="font-family: Stratos-SemiLight, Stratos; font-weight: 300;"><tspan x="0" y="0" style="font-size: 19.31px; letter-spacing: 0em;">A</tspan><tspan x="9.83" y="0" style="font-size: 19.31px; letter-spacing: 0em;">v</tspan><tspan x="19.37" y="0" style="font-size: 19.31px; letter-spacing: 0em;">aliação Nacional da</tspan><tspan x="188.87" y="0" style="font-size: 20.32px; letter-spacing: 0em;"> </tspan></tspan><tspan style="font-size: 20.32px;"><tspan x="0" y="24.39" style="font-family: Stratos-SemiBold, Stratos; font-weight: 600; letter-spacing: 0em;">Qualidade </tspan><tspan x="97.47" y="24.39" style="font-family: Stratos-SemiBold, Stratos; font-weight: 600; letter-spacing: -.01em;">P</tspan><tspan x="108.02" y="24.39" style="font-family: Stratos-SemiBold, Stratos; font-weight: 600; letter-spacing: 0em;">e</tspan><tspan x="119.5" y="24.39" style="font-family: Stratos-SemiBold, Stratos; font-weight: 600; letter-spacing: -.01em;">r</tspan><tspan x="127.47" y="24.39" style="font-family: Stratos-SemiBold, Stratos; font-weight: 600; letter-spacing: 0em;">cebida</tspan><tspan x="192.04" y="24.39" style="font-family: Stratos-Medium, Stratos; font-weight: 500; letter-spacing: 0em;"> </tspan></tspan><tspan style="font-family: Stratos-SemiLight, Stratos; font-size: 20.32px; font-weight: 300;"><tspan x="0" y="48.78" style="letter-spacing: 0em;">dos Cursos do </tspan><tspan x="136.4" y="48.78" style="letter-spacing: 0em;">S</tspan><tspan x="146.44" y="48.78" style="letter-spacing: 0em;">enac </tspan></tspan><tspan style="font-family: Stratos-Medium, Stratos; font-size: 20.32px; font-weight: 500; letter-spacing: 0em;"><tspan x="0" y="73.17">2025</tspan></tspan></text>
    </g>
    <g>
      <path d="M947.45,94.98c-.15-.01-.28-.02-.4-.02-2.06,0-3.48.8-3.48,2.26s1.43,2.48,3.48,2.48c.12,0,.25,0,.4-.02v1.86h0c-.13,0-.26.01-.39.01-2.59,0-5.33-.9-6.06-3.11v3.11h-2.81l-4.84-5.37v5.37h-4.09c-3-.01-6.19-1.23-6.19-4.33,0-2.69,2.8-3.94,5.63-4.09v1.86c-1.72.15-2.86.93-2.86,2.23,0,1.44,1.41,2.46,3.43,2.48h1.3v-6.58c1.52,0,3.05.54,4.32,1.94,1.23,1.36,3.36,3.73,3.36,3.73v-5.67h2.74v2.98c.73-2.08,3.47-2.98,6.06-2.98.13,0,.27,0,.4.02v1.85Z"/>
      <path d="M968.66,97.32h-3.3c.17-.85.76-1.41,1.67-1.41s1.5.57,1.63,1.41M978.53,97.82c0-1.12,1.17-2.03,2.61-2.03.18,0,.35.01.52.04v-1.42c-.31-.04-.64-.06-1-.06-2.49,0-4.37,1.49-4.37,3.48,0,.15.02.29.04.43-.36-.63-1.17-.95-2.34-1.19-1.47-.3-1.67-.43-1.64-.75.03-.31.52-.59,1.26-.59.47,0,1.1.11,1.66.37v-1.48c-.54-.17-1.13-.28-1.77-.28-1.85,0-3.1.89-3.19,2.11,0,.02,0,.04,0,.06-.44-1.22-1.48-2.14-3.29-2.14-2.17,0-3.64,1.58-3.64,3.5,0,.1.02.19.03.29-.35-.88-1.35-1.33-2.89-1.67-1.65-.36-2.07-.54-2.07-1.07v-.02c0-.4.42-.71,1.23-.71s1.45.3,2.29.79v-1.93c-.72-.29-1.37-.44-2.26-.44-1.96,0-3.35.98-3.35,2.46v.02c0,1.62,1.24,2.07,3.17,2.49,1.6.35,1.93.58,1.93,1.04v.02c0,.48-.52.77-1.38.77-1.09,0-2.06-.43-2.93-1.03l-1.24,1.27c1.15.87,2.68,1.35,4.13,1.35,2.06,0,3.51-.91,3.51-2.52.43,1.42,1.71,2.36,3.45,2.36.33,0,.81-.01,1.59-.21v-1.47c-.73.21-1.04.23-1.47.21-.86-.04-1.55-.53-1.75-1.37h5.17c.01-.17.03-.28.03-.47v-.02c0-.2-.02-.39-.04-.58.38.57,1.24.8,2.45,1.04,1.44.29,1.52.51,1.52.85,0,.3-.38.64-1.23.61-.87-.03-1.9-.29-2.69-.74v1.7c.82.37,1.87.6,2.68.6,1.95,0,3.28-1.14,3.28-2.37,0-.05-.01-.09-.01-.13.34.83,1.02,1.46,1.8,1.85.77.37,1.59.49,2.26.49.4,0,.74-.03,1.07-.08v-1.44c-.17.03-.34.04-.52.04-1.44,0-2.61-.91-2.61-2.03"/>
      <path d="M973.36,55.7c-2.98-2.05-6.57-3.67-10.52-4.64-.98-.23-1.96-.45-2.97-.6-.04,0-.08,0-.12-.01-1.44,1.06-2.77,2.24-3.96,3.5,1.32-.19,2.67-.32,4.05-.37,4.81-.18,9.39.61,13.52,2.11"/>
      <path d="M954.56,65.32c1.87-1.38,3.92-2.62,6.13-3.66,5.45-2.57,11.15-3.66,16.53-3.42-4.63-2.05-9.95-3.12-15.57-2.92-2.77.1-5.45.51-7.98,1.18-1.26,1.7-2.31,3.52-3.1,5.45,1.22,1.2,2.56,2.33,3.99,3.38"/>
      <path d="M948.81,70.67c1.48-1.74,3.17-3.35,5.05-4.81-1.3-.93-2.51-1.93-3.64-2.99-.9,2.48-1.4,5.09-1.41,7.8"/>
      <path d="M950.2,60.64c.63-1.3,1.32-2.54,2.07-3.72-1.6.49-3.14,1.08-4.6,1.78.7.89,1.45,1.74,2.25,2.57.1-.21.19-.42.29-.63"/>
      <path d="M969.08,79.96c-.33,1.71-2.09,1.96-2.49,1.99-2.85.15-2.95-1.8-2-2.39,1.29-.8,4.5-.35,4.5-.35,0,.12.03.41-.01.76M945.17,77.31h-5.65c.3-1.5,1.31-2.49,2.86-2.49s2.56,1,2.79,2.49M976.68,77.72v-.05c0-2.33,2.01-4.16,4.57-4.16.14,0,.27,0,.4.01v-2.8c-.12,0-.24,0-.37,0-4.46,0-7.95,2.38-8.67,5.71-.31-2.64-2.13-4.19-5.84-4.19-.17,0-.74,0-.9,0v2.83c.73,0,1.73.13,2.17.37.65.34.99.92,1.01,1.71-.89-.1-1.9-.18-2.78-.2-3.48-.09-5.25,1.03-5.67,2.84v-1.86c0-3.16-1.93-5.63-6.02-5.63-3.76,0-5.69,2.08-5.98,4.87-.47-2.75-2.43-5.01-6.24-5.01s-6.53,2.75-6.53,6.08v.04c0,.09,0,.18.01.27-.77-1.27-2.48-1.97-4.98-2.51-2.96-.63-3.38-.94-3.38-1.87v-.04c0-.69.76-1.24,2.2-1.24.74,0,1.7.2,2.37.45v-2.99c-.63-.11-1.59-.23-2.32-.23-3.5,0-6,1.71-6,4.3v.04c0,2.83,2.23,3.62,5.68,4.36,2.87.61,3.14,1.02,3.14,1.81v.04c0,.83-.93,1.34-2.47,1.34-1.96,0-3.26-.67-4.8-1.73l-2.23,2.22c2.06,1.53,4.36,2.28,6.96,2.28,3.6,0,6.15-1.51,6.28-4.21.97,2.29,3.4,3.75,6.45,3.75.11,0,.48-.02.6-.02v-2.66c-.1,0-.45.02-.55.02-1.68,0-2.86-.78-3.23-2.29h9.01v4.73h3.79v-6.41c.07-1.17.53-2.55,2.24-2.55s2.2,1.38,2.27,2.55v6.41h3.75v-2.57c.44,1.77,2.27,2.72,4.43,2.72,1.83,0,3.08-.59,3.99-1.48v1.35h3.62v-4.88c.83,3.16,4.29,5.47,8.55,5.47.15,0,.29,0,.43,0v-2.79c-.07,0-.13,0-.2,0-2.76,0-4.77-1.77-4.77-4.21"/>
    </g>
    <g>
      <path d="M312.59,95.16h-39.42c-5.52,0-9.99,4.47-9.99,9.99h0c0,5.16,3.91,9.41,8.93,9.93v5.31l5.59-5.26h34.88c5.52,0,9.99-4.47,9.99-9.99h0c0-5.52-4.47-9.99-9.99-9.99Z" style="fill: #d0ff71;"/>
      <g>
        <polygon points="273.67 105.72 271.93 106.73 270.2 107.74 270.19 105.73 270.19 103.72 271.93 104.72 273.67 105.72" style="fill: #080717;"/>
        <line x1="275.14" y1="105.72" x2="311.58" y2="105.61" style="fill: none; stroke: #080717; stroke-linejoin: round; stroke-width: .69px;"/>
        <line x1="313.45" y1="105.6" x2="315.58" y2="105.6" style="fill: none; stroke: #080717; stroke-linejoin: round; stroke-width: .69px;"/>
        <path d="M286.52,105.68c0,.6-.48,1.08-1.07,1.08-.6,0-1.08-.48-1.08-1.07,0-.6.48-1.08,1.07-1.08.6,0,1.08.48,1.08,1.07Z" style="fill: #fff; stroke: #080717; stroke-linejoin: round; stroke-width: .69px;"/>
      </g>
      <rect x="117.02" y="-18.87" width="18.43" height="248.83" rx="9.21" ry="9.21" transform="translate(20.69 231.78) rotate(-90)" style="fill: #27eaa6;"/>
      <rect x="404.5" y="26.95" width="18.43" height="157.2" rx="9.21" ry="9.21" transform="translate(308.17 519.26) rotate(-90)" style="fill: #27eaa6;"/>
      <rect x="-51.23" y="-20.44" width="18.43" height="189.51" rx="-7.19" ry="-7.19" transform="translate(-116.34 32.3) rotate(-90)" style="fill: #27eaa6;"/>
      <rect x="290.57" y="47.53" width="18.43" height="53.58" rx="9.21" ry="9.21" transform="translate(225.47 374.1) rotate(-90)" style="fill: #27eaa6;"/>
      <rect x="227.45" y="47.53" width="18.43" height="53.58" rx="9.21" ry="9.21" transform="translate(162.34 310.98) rotate(-90)" style="fill: #8f93ff;"/>
      <rect x="122.95" y="6.16" width="18.43" height="136.32" rx="9.21" ry="9.21" transform="translate(57.85 206.49) rotate(-90)" style="fill: #27eaa6;"/>
      <rect x="424.87" y="-20.44" width="18.43" height="189.51" rx="9.21" ry="9.21" transform="translate(359.77 508.41) rotate(-90)" style="fill: none; stroke: #8f93ff; stroke-miterlimit: 10; stroke-width: 1.38px;"/>
      <rect x="-16.88" y="98.84" width="18.43" height="75.87" rx="9.21" ry="9.21" transform="translate(-144.45 129.11) rotate(-90)" style="fill: #27eaa6;"/>
      <rect x="355.68" y="64.5" width="18.43" height="144.56" rx="9.21" ry="9.21" transform="translate(228.11 501.67) rotate(-90)" style="fill: #27eaa6;"/>
      <rect x="151.97" y="21.16" width="18.43" height="231.24" rx="9.21" ry="9.21" transform="translate(24.41 297.97) rotate(-90)" style="fill: none; stroke: #8f93ff; stroke-miterlimit: 10; stroke-width: 1.38px;"/>
      <rect x="481.7" y="98.84" width="18.43" height="75.87" rx="9.21" ry="9.21" transform="translate(354.13 627.69) rotate(-90)" style="fill: #8f93ff;"/>
      <rect x="334.06" y="-41.63" width="18.43" height="169.43" rx="9.21" ry="9.21" transform="translate(300.19 386.36) rotate(-90)" style="fill: none; stroke: #8f93ff; stroke-miterlimit: 10; stroke-width: 1.38px;"/>
      <rect x="133.87" y="-61.31" width="18.82" height="208.41" rx="9.4" ry="9.4" transform="translate(100.39 186.17) rotate(-90)" style="fill: #27eaa6;"/>
      <rect x="448.53" y="25.16" width="18.43" height="35.84" rx="9.21" ry="9.21" transform="translate(414.66 500.83) rotate(-90)" style="fill: #27eaa6;"/>
      <rect x="-77.35" y="-56.78" width="18.43" height="137.28" rx="-20.25" ry="-20.25" transform="translate(-79.99 -56.28) rotate(-90)" style="fill: none; stroke: #8f93ff; stroke-miterlimit: 10; stroke-width: 1.38px;"/>
      <rect x="356.73" y=".38" width="18.43" height="22.94" rx="9.21" ry="9.21" transform="translate(354.09 377.79) rotate(-90)" style="fill: #27eaa6;"/>
      <rect x="169.39" y="-154.33" width="18.43" height="332.36" rx="9.21" ry="9.21" transform="translate(166.75 190.46) rotate(-90)" style="fill: #27eaa6;"/>
      <rect x="450.99" y="-56.78" width="18.43" height="137.28" rx="9.21" ry="9.21" transform="translate(448.35 472.06) rotate(-90)" style="fill: #8f93ff;"/>
      <g>
        <g>
          <rect x="485.03" y="33.48" width="43.82" height="18.82" rx="6.44" ry="6.44" style="fill: #ffc6de;"/>
          <polygon points="491.57 27.76 491.57 39.42 503.24 39.42 491.57 27.76" style="fill: #ffc6de;"/>
        </g>
        <path d="M491.39,45.5c1.41,0,1.41-5.21,2.83-5.21,1.41,0,1.41,5.21,2.82,5.21,1.41,0,1.41-5.21,2.83-5.21,1.41,0,1.41,5.21,2.83,5.21,1.41,0,1.41-5.21,2.83-5.21,1.41,0,1.41,5.21,2.83,5.21,1.41,0,1.41-5.21,2.83-5.21,1.41,0,1.41,5.21,2.83,5.21,1.41,0,1.41-5.21,2.83-5.21,1.42,0,1.42,5.21,2.83,5.21s1.42-5.21,2.83-5.21" style="fill: none; stroke: #000; stroke-width: .87px;"/>
      </g>
      <g>
        <circle cx="18.15" cy="43.09" r="10.36" transform="translate(-27.95 50.85) rotate(-76.72)" style="fill: #8f93ff;"/>
        <g>
          <path d="M23.6,48.07v-.61c0-2.01-1.63-3.64-3.64-3.64h-3.64c-2.01,0-3.64,1.63-3.64,3.64v.61h10.91Z" style="fill: #fff;"/>
          <path d="M20.57,39.58c0,1.34-1.09,2.42-2.42,2.42s-2.42-1.09-2.42-2.42,1.09-2.42,2.42-2.42,2.42,1.09,2.42,2.42Z" style="fill: #fff;"/>
        </g>
      </g>
    </g>
  </g>
</svg>