<?xml version="1.0" encoding="UTF-8"?>
<svg id="uuid-da7db343-cf01-40f0-a7f6-5b8e479f72d7" data-name="Layer 1" xmlns="http://www.w3.org/2000/svg" xmlns:xlink="http://www.w3.org/1999/xlink" viewBox="0 0 1024 152">
  <defs>
    <clipPath id="uuid-6e410a05-1693-4cd0-9d4e-8ffaebe5ef3e">
      <rect width="1024" height="152" style="fill: none;"/>
    </clipPath>
  </defs>
  <g style="clip-path: url(#uuid-6e410a05-1693-4cd0-9d4e-8ffaebe5ef3e);">
    <rect x="-4.27" y="-4.95" width="1033.44" height="164.53" style="fill: #fafaff;"/>
    <g>
      <rect x="616.06" y="98.94" width="197.66" height="23.55" rx="11.68" ry="11.68" style="fill: none; stroke: #000; stroke-miterlimit: 10; stroke-width: 1.21px;"/>
      <g>
        <path d="M627.74,29.98l3.49,14.48h-1.56l-.89-3.82h-4.4l-.89,3.82h-1.56l3.49-14.48h2.32ZM628.45,39.22l-1.87-8.09-1.87,8.09h3.75Z"/>
        <path d="M635.25,44.45l-3.57-9.65h1.6l3.03,8.51,3.03-8.51h1.6l-3.57,9.65h-2.12Z"/>
        <path d="M642.01,41.94c0-4.21,6.74-1.87,6.74-4.34,0-1.14-1.02-1.76-2.39-1.76s-2.47.73-2.47,2.16h-1.58c0-2.45,1.97-3.4,4.05-3.4s3.94.85,3.94,3.05v6.79h-1.53v-1.78c-.66,1.37-1.99,1.97-3.44,1.97-1.78,0-3.32-.85-3.32-2.7ZM645.62,43.35c1.62,0,3.15-1,3.15-2.88v-.93c-1.68.95-5.17.27-5.17,2.3,0,1,.83,1.51,2.03,1.51Z"/>
        <path d="M653.13,44.45v-14.48h1.54v14.48h-1.54Z"/>
        <path d="M657.32,31.41c0-.64.48-1.12,1.12-1.12s1.12.48,1.12,1.12-.46,1.12-1.12,1.12-1.12-.5-1.12-1.12ZM657.67,44.45v-9.65h1.54v9.65h-1.54Z"/>
        <path d="M661.68,41.94c0-4.21,6.74-1.87,6.74-4.34,0-1.14-1.02-1.76-2.39-1.76s-2.47.73-2.47,2.16h-1.58c0-2.45,1.97-3.4,4.05-3.4s3.94.85,3.94,3.05v6.79h-1.52v-1.78c-.66,1.37-1.99,1.97-3.44,1.97-1.78,0-3.32-.85-3.32-2.7ZM665.29,43.35c1.62,0,3.15-1,3.15-2.88v-.93c-1.68.95-5.17.27-5.17,2.3,0,1,.83,1.51,2.03,1.51Z"/>
        <path d="M675.72,47.7c.06.5.5.75,1.1.75.68,0,1.12-.44,1.12-1.02s-.44-1.02-1.06-1.02c-.5,0-.87.25-1,.46h-1.02l1.47-2.24c-2.49-.23-4.27-2.22-4.27-5,0-2.95,2.03-5.02,4.77-5.02,2.51,0,4.46,1.62,4.73,4.03h-1.62c-.21-1.66-1.52-2.62-3.11-2.62-1.83,0-3.22,1.45-3.22,3.61s1.39,3.61,3.22,3.61c1.6,0,2.95-1.04,3.15-2.84h1.6c-.13,2.39-1.93,4.03-4.27,4.23l-.68.96c.12-.02.23-.02.37-.02,1.16,0,1.91.85,1.91,1.85s-.79,1.85-2.08,1.85-2.08-.71-2.08-1.58h.98Z"/>
        <path d="M683.31,41.94c0-4.21,6.74-1.87,6.74-4.34,0-1.14-1.02-1.76-2.39-1.76s-2.47.73-2.47,2.16h-1.58c0-2.45,1.97-3.4,4.05-3.4s3.94.85,3.94,3.05v6.79h-1.52v-1.78c-.66,1.37-1.99,1.97-3.44,1.97-1.78,0-3.32-.85-3.32-2.7ZM684.6,31.83c0-1.22.52-1.78,1.49-1.78,1.31,0,1.95,1.56,2.86,1.56.42,0,.67-.21.67-.85v-.64h1.08v.96c0,1.22-.54,1.78-1.49,1.78-1.31,0-1.95-1.56-2.86-1.56-.42,0-.68.21-.68.85v.64h-1.08v-.96ZM686.92,43.35c1.62,0,3.15-1,3.15-2.88v-.93c-1.68.95-5.17.27-5.17,2.3,0,1,.83,1.51,2.03,1.51Z"/>
        <path d="M693.67,39.63c0-2.95,2.07-5.02,4.84-5.02s4.84,2.07,4.84,5.02-2.07,5.02-4.84,5.02-4.84-2.07-4.84-5.02ZM701.82,39.63c0-2.16-1.43-3.61-3.3-3.61s-3.3,1.45-3.3,3.61,1.43,3.61,3.3,3.61,3.3-1.45,3.3-3.61Z"/>
        <path d="M716.97,43.49v-13.51h1.43v14.48h-2.55l-4.4-13.65v13.65h-1.43v-14.48h2.59l4.36,13.51Z"/>
        <path d="M720.88,41.94c0-4.21,6.74-1.87,6.74-4.34,0-1.14-1.02-1.76-2.39-1.76s-2.47.73-2.47,2.16h-1.58c0-2.45,1.97-3.4,4.05-3.4s3.94.85,3.94,3.05v6.79h-1.52v-1.78c-.66,1.37-1.99,1.97-3.44,1.97-1.78,0-3.32-.85-3.32-2.7ZM724.49,43.35c1.62,0,3.15-1,3.15-2.88v-.93c-1.68.95-5.17.27-5.17,2.3,0,1,.83,1.51,2.03,1.51Z"/>
        <path d="M736.01,36.02c-1.83,0-3.22,1.45-3.22,3.61s1.39,3.61,3.22,3.61c1.6,0,2.95-1.04,3.15-2.84h1.6c-.15,2.55-2.18,4.25-4.75,4.25-2.74,0-4.77-2.07-4.77-5.02s2.03-5.02,4.77-5.02c2.51,0,4.46,1.62,4.73,4.03h-1.62c-.21-1.66-1.52-2.62-3.11-2.62Z"/>
        <path d="M742.68,31.41c0-.64.48-1.12,1.12-1.12s1.12.48,1.12,1.12-.46,1.12-1.12,1.12-1.12-.5-1.12-1.12ZM743.02,44.45v-9.65h1.54v9.65h-1.54Z"/>
        <path d="M746.81,39.63c0-2.95,2.07-5.02,4.84-5.02s4.84,2.07,4.84,5.02-2.07,5.02-4.84,5.02-4.84-2.07-4.84-5.02ZM754.95,39.63c0-2.16-1.43-3.61-3.3-3.61s-3.3,1.45-3.3,3.61,1.43,3.61,3.3,3.61,3.3-1.45,3.3-3.61Z"/>
        <path d="M762.93,35.96c-1.62,0-2.64,1.08-2.64,3.28v5.21h-1.54v-9.65h1.54v1.7c.6-1.25,1.72-1.89,3.09-1.89,2.16,0,3.75,1.33,3.75,4.3v5.54h-1.54v-5.21c0-2.2-1.02-3.28-2.64-3.28Z"/>
        <path d="M769.49,41.94c0-4.21,6.74-1.87,6.74-4.34,0-1.14-1.02-1.76-2.39-1.76s-2.47.73-2.47,2.16h-1.58c0-2.45,1.97-3.4,4.05-3.4s3.94.85,3.94,3.05v6.79h-1.53v-1.78c-.66,1.37-1.99,1.97-3.44,1.97-1.78,0-3.32-.85-3.32-2.7ZM773.1,43.35c1.62,0,3.15-1,3.15-2.88v-.93c-1.68.95-5.17.27-5.17,2.3,0,1,.83,1.51,2.03,1.51Z"/>
        <path d="M780.62,44.45v-14.48h1.54v14.48h-1.54Z"/>
        <path d="M796.89,36.54v-6.56h1.54v14.48h-1.54v-1.74c-.77,1.2-1.99,1.93-3.44,1.93-2.64,0-4.63-2.07-4.63-5.02s1.99-5.02,4.63-5.02c1.45,0,2.66.73,3.44,1.93ZM790.36,39.63c0,2.16,1.41,3.61,3.26,3.61s3.26-1.45,3.26-3.61-1.41-3.61-3.26-3.61-3.26,1.45-3.26,3.61Z"/>
        <path d="M800.91,41.94c0-4.21,6.74-1.87,6.74-4.34,0-1.14-1.02-1.76-2.39-1.76s-2.47.73-2.47,2.16h-1.58c0-2.45,1.97-3.4,4.05-3.4s3.94.85,3.94,3.05v6.79h-1.52v-1.78c-.66,1.37-1.99,1.97-3.44,1.97-1.78,0-3.32-.85-3.32-2.7ZM804.52,43.35c1.62,0,3.15-1,3.15-2.88v-.93c-1.68.95-5.17.27-5.17,2.3,0,1,.83,1.51,2.03,1.51Z"/>
        <path d="M622.67,63.8v-5.16c0-3.54,1.81-5.28,4.78-5.28s4.78,1.75,4.78,5.28v4.96c0,1.36-.32,2.44-1.08,3.09l1.38,2.15h-2.54l-.71-1.06c-.37.94-1.28,1.3-2.34,1.3-2.52,0-4.27-1.75-4.27-5.28ZM628.16,66.4l-1.97-2.89h2.5l.57.87c.02-.16.02-.35.02-.53v-5.28c0-1.99-.69-2.64-1.83-2.64s-1.83.65-1.83,2.64v5.28c0,1.99.67,2.64,1.83,2.64.26,0,.49-.04.71-.1Z"/>
        <path d="M639.07,66.61c1.12,0,1.77-.79,1.77-2.32v-5.61h2.95v10.16h-2.89v-1.44c-.61,1.06-1.65,1.65-2.91,1.65-2.09,0-3.66-1.36-3.66-4.08v-6.28h2.95v5.61c0,1.52.67,2.32,1.79,2.32Z"/>
        <path d="M645.72,66.14c0-4.29,6.46-2.38,6.46-4.37,0-.71-.69-1.14-1.61-1.14-1.04,0-1.65.55-1.65,1.54h-2.91c0-2.66,2.28-3.7,4.63-3.7s4.47.94,4.47,3.37v6.99h-2.84v-1.54c-.65,1.24-1.83,1.75-3.23,1.75-1.69,0-3.33-.89-3.33-2.91ZM649.95,66.87c1.22,0,2.28-.71,2.28-2.07v-.53c-1.4.63-3.56.45-3.56,1.63,0,.65.57.98,1.28.98Z"/>
        <path d="M657.37,68.84v-15.24h2.95v15.24h-2.95Z"/>
        <path d="M662.45,55.21c0-.96.75-1.69,1.75-1.69s1.77.73,1.77,1.69-.73,1.71-1.77,1.71-1.75-.75-1.75-1.71ZM662.73,68.84v-10.16h2.95v10.16h-2.95Z"/>
        <path d="M675.21,59.9v-6.3h2.95v15.24h-2.91v-1.28c-.75.93-1.81,1.48-3.05,1.48-2.74,0-4.72-2.11-4.72-5.28s1.97-5.28,4.72-5.28c1.22,0,2.26.53,3.01,1.42ZM670.37,63.76c0,1.61,1.04,2.66,2.42,2.66s2.42-1.06,2.42-2.66-1.02-2.66-2.42-2.66-2.42,1.06-2.42,2.66Z"/>
        <path d="M680.09,66.14c0-4.29,6.46-2.38,6.46-4.37,0-.71-.69-1.14-1.61-1.14-1.04,0-1.65.55-1.65,1.54h-2.91c0-2.66,2.28-3.7,4.63-3.7s4.47.94,4.47,3.37v6.99h-2.84v-1.54c-.65,1.24-1.83,1.75-3.23,1.75-1.69,0-3.33-.89-3.33-2.91ZM684.31,66.87c1.22,0,2.28-.71,2.28-2.07v-.53c-1.4.63-3.56.45-3.56,1.63,0,.65.57.98,1.28.98Z"/>
        <path d="M698.85,59.9v-6.3h2.95v15.24h-2.91v-1.28c-.75.93-1.81,1.48-3.05,1.48-2.74,0-4.72-2.11-4.72-5.28s1.97-5.28,4.72-5.28c1.22,0,2.26.53,3.01,1.42ZM694.01,63.76c0,1.61,1.04,2.66,2.42,2.66s2.42-1.06,2.42-2.66-1.02-2.66-2.42-2.66-2.42,1.06-2.42,2.66Z"/>
        <path d="M706.43,64.58c.22,1.34,1.06,2.07,2.4,2.07.94,0,1.54-.35,1.83-1.02h2.99c-.63,2.24-2.4,3.41-4.9,3.41-2.99,0-5.14-2.17-5.14-5.28s2.15-5.28,5.14-5.28,5.14,2.17,5.14,5.28c0,.28-.02.55-.04.81h-7.42ZM706.45,62.85h4.59c-.24-1.28-1.06-1.95-2.3-1.95s-2.05.67-2.3,1.95Z"/>
        <path d="M720.35,68.84v-15.24h4.59c2.66,0,4.45,1.5,4.45,4.31v.94c0,2.89-1.79,4.47-4.45,4.47h-1.71v5.53h-2.89ZM723.24,56.14v4.61h1.54c1.12,0,1.79-.61,1.79-2.11v-.53c0-1.42-.67-1.97-1.79-1.97h-1.54Z"/>
        <path d="M733.11,64.58c.22,1.34,1.06,2.07,2.4,2.07.94,0,1.54-.35,1.83-1.02h2.99c-.63,2.24-2.4,3.41-4.9,3.41-2.99,0-5.14-2.17-5.14-5.28s2.15-5.28,5.14-5.28,5.14,2.17,5.14,5.28c0,.28-.02.55-.04.81h-7.42ZM733.13,62.85h4.59c-.24-1.28-1.06-1.95-2.3-1.95s-2.05.67-2.3,1.95Z"/>
        <path d="M745.23,60.45c.67-1.26,1.81-1.97,3.25-1.97.2,0,.41,0,.53.04v3.01c-.29-.08-.65-.16-1.06-.16-1.67,0-2.62.83-2.62,2.36v5.12h-2.95v-10.16h2.85v1.77Z"/>
        <path d="M754.94,61.1c-1.34,0-2.32,1.08-2.32,2.66s.96,2.66,2.32,2.66c1.12,0,2.05-.65,2.24-1.95h2.97c-.14,2.74-2.26,4.57-5.2,4.57s-5.2-2.17-5.2-5.28,2.22-5.28,5.2-5.28,4.92,1.75,5.18,4.35h-3.01c-.14-1.16-1.06-1.73-2.17-1.73Z"/>
        <path d="M764.17,64.58c.22,1.34,1.06,2.07,2.4,2.07.94,0,1.54-.35,1.83-1.02h2.99c-.63,2.24-2.4,3.41-4.9,3.41-2.99,0-5.14-2.17-5.14-5.28s2.16-5.28,5.14-5.28,5.14,2.17,5.14,5.28c0,.28-.02.55-.04.81h-7.42ZM764.19,62.85h4.59c-.24-1.28-1.06-1.95-2.3-1.95s-2.05.67-2.3,1.95Z"/>
        <path d="M784.11,63.76c0,3.17-1.97,5.28-4.74,5.28-1.24,0-2.3-.55-3.05-1.5v1.3h-2.89v-15.24h2.95v6.3c.75-.89,1.79-1.42,2.99-1.42,2.76,0,4.74,2.11,4.74,5.28ZM776.38,63.76c0,1.61,1.04,2.66,2.42,2.66s2.4-1.06,2.4-2.66-1.02-2.66-2.4-2.66-2.42,1.06-2.42,2.66Z"/>
        <path d="M785.63,55.21c0-.96.75-1.69,1.75-1.69s1.77.73,1.77,1.69-.73,1.71-1.77,1.71-1.75-.75-1.75-1.71ZM785.92,68.84v-10.16h2.95v10.16h-2.95Z"/>
        <path d="M798.39,59.9v-6.3h2.95v15.24h-2.91v-1.28c-.75.93-1.81,1.48-3.05,1.48-2.74,0-4.72-2.11-4.72-5.28s1.97-5.28,4.72-5.28c1.22,0,2.26.53,3.01,1.42ZM793.56,63.76c0,1.61,1.04,2.66,2.42,2.66s2.42-1.06,2.42-2.66-1.02-2.66-2.42-2.66-2.42,1.06-2.42,2.66Z"/>
        <path d="M803.27,66.14c0-4.29,6.46-2.38,6.46-4.37,0-.71-.69-1.14-1.61-1.14-1.04,0-1.65.55-1.65,1.54h-2.91c0-2.66,2.28-3.7,4.63-3.7s4.47.94,4.47,3.37v6.99h-2.84v-1.54c-.65,1.24-1.83,1.75-3.23,1.75-1.69,0-3.33-.89-3.33-2.91ZM807.5,66.87c1.22,0,2.28-.71,2.28-2.07v-.53c-1.4.63-3.56.45-3.56,1.63,0,.65.57.98,1.28.98Z"/>
        <path d="M630.94,84.9v-6.91h1.63v15.24h-1.63v-1.83c-.81,1.26-2.09,2.03-3.62,2.03-2.79,0-4.88-2.17-4.88-5.28s2.09-5.28,4.88-5.28c1.52,0,2.8.77,3.62,2.03ZM624.08,88.15c0,2.28,1.48,3.8,3.43,3.8s3.43-1.52,3.43-3.8-1.48-3.8-3.43-3.8-3.43,1.52-3.43,3.8Z"/>
        <path d="M634.93,88.15c0-3.11,2.17-5.28,5.1-5.28s5.1,2.17,5.1,5.28-2.17,5.28-5.1,5.28-5.1-2.17-5.1-5.28ZM643.5,88.15c0-2.28-1.5-3.8-3.48-3.8s-3.48,1.52-3.48,3.8,1.5,3.8,3.48,3.8,3.48-1.52,3.48-3.8Z"/>
        <path d="M651.19,93.44c-2.46,0-4.31-1.22-4.31-3.39h1.69c0,1.4,1.14,2.09,2.62,2.09s2.32-.55,2.32-1.65c0-2.76-6.4-.67-6.4-4.74,0-1.79,1.63-2.89,3.78-2.89,2.34,0,4.07,1.38,4.07,3.19h-1.69c0-1.08-1.02-1.89-2.38-1.89-1.28,0-2.15.57-2.15,1.52,0,2.58,6.44.61,6.44,4.74,0,1.91-1.65,3.01-3.98,3.01Z"/>
        <path d="M670.98,87.5v.81c0,3.43-1.67,5.12-4.41,5.12s-4.41-1.69-4.41-5.12v-5.41c0-3.43,1.67-5.12,4.41-5.12s4.41,1.69,4.41,5.12v.61h-1.63v-.61c0-2.58-1.04-3.64-2.78-3.64s-2.79,1.06-2.79,3.64v5.41c0,2.58,1.04,3.64,2.79,3.64s2.78-1.06,2.78-3.64v-.81h1.63Z"/>
        <path d="M678.2,92.01c1.69,0,2.72-1.16,2.72-3.54v-5.41h1.63v10.16h-1.63v-1.83c-.63,1.36-1.81,2.03-3.21,2.03-2.22,0-3.88-1.42-3.88-4.61v-5.75h1.63v5.41c0,2.38,1.04,3.54,2.74,3.54Z"/>
        <path d="M687.32,85.1c.71-1.48,2.01-2.24,3.64-2.24.26,0,.55.02.77.1v1.75c-.3-.12-.69-.18-1.1-.18-2.09,0-3.31,1.2-3.31,3.7v5h-1.63v-10.16h1.63v2.03Z"/>
        <path d="M697.57,93.44c-2.46,0-4.31-1.22-4.31-3.39h1.69c0,1.4,1.14,2.09,2.62,2.09s2.32-.55,2.32-1.65c0-2.76-6.4-.67-6.4-4.74,0-1.79,1.63-2.89,3.78-2.89,2.34,0,4.07,1.38,4.07,3.19h-1.69c0-1.08-1.02-1.89-2.38-1.89-1.28,0-2.15.57-2.15,1.52,0,2.58,6.44.61,6.44,4.74,0,1.91-1.65,3.01-3.98,3.01Z"/>
        <path d="M703.3,88.15c0-3.11,2.17-5.28,5.1-5.28s5.1,2.17,5.1,5.28-2.17,5.28-5.1,5.28-5.1-2.17-5.1-5.28ZM711.88,88.15c0-2.28-1.5-3.8-3.48-3.8s-3.48,1.52-3.48,3.8,1.5,3.8,3.48,3.8,3.48-1.52,3.48-3.8Z"/>
        <path d="M719.56,93.44c-2.46,0-4.31-1.22-4.31-3.39h1.69c0,1.4,1.14,2.09,2.62,2.09s2.32-.55,2.32-1.65c0-2.76-6.4-.67-6.4-4.74,0-1.79,1.63-2.89,3.78-2.89,2.34,0,4.07,1.38,4.07,3.19h-1.69c0-1.08-1.02-1.89-2.38-1.89-1.28,0-2.15.57-2.15,1.52,0,2.58,6.44.61,6.44,4.74,0,1.91-1.65,3.01-3.98,3.01Z"/>
        <path d="M738.44,84.9v-6.91h1.63v15.24h-1.63v-1.83c-.81,1.26-2.09,2.03-3.62,2.03-2.79,0-4.88-2.17-4.88-5.28s2.09-5.28,4.88-5.28c1.52,0,2.8.77,3.62,2.03ZM731.57,88.15c0,2.28,1.48,3.8,3.43,3.8s3.43-1.52,3.43-3.8-1.48-3.8-3.43-3.8-3.43,1.52-3.43,3.8Z"/>
        <path d="M742.42,88.15c0-3.11,2.17-5.28,5.1-5.28s5.1,2.17,5.1,5.28-2.17,5.28-5.1,5.28-5.1-2.17-5.1-5.28ZM751,88.15c0-2.28-1.5-3.8-3.48-3.8s-3.48,1.52-3.48,3.8,1.5,3.8,3.48,3.8,3.48-1.52,3.48-3.8Z"/>
        <path d="M763.01,77.79c2.13,0,3.78,1.32,3.78,4.06v.85h-1.63v-.79c0-1.81-.83-2.64-2.15-2.64s-2.11.77-2.11,2.15.93,2.17,2.05,2.93l1.52,1.04c1.38.96,2.56,2.11,2.56,4.08,0,2.64-1.79,3.96-4,3.96s-4-1.44-4-4.06v-1.06h1.63v.91c0,1.69.96,2.72,2.38,2.72s2.38-.85,2.38-2.28-.89-2.28-2.01-3.03l-1.48-1.02c-1.44-.98-2.64-2.15-2.64-4.21,0-2.6,1.69-3.64,3.74-3.64Z"/>
        <path d="M770.47,88.72c.22,2.03,1.54,3.29,3.43,3.29,1.4,0,2.42-.69,2.87-1.83h1.77c-.65,2.05-2.4,3.25-4.7,3.25-2.87,0-4.96-2.17-4.96-5.28s2.09-5.28,4.96-5.28,4.96,2.17,4.96,5.28c0,.2-.02.37-.02.57h-8.31ZM770.49,87.52h6.71c-.22-2.01-1.5-3.23-3.35-3.23s-3.13,1.22-3.35,3.23Z"/>
        <path d="M785.57,84.29c-1.71,0-2.79,1.14-2.79,3.46v5.49h-1.63v-10.16h1.63v1.79c.63-1.32,1.81-1.99,3.25-1.99,2.28,0,3.94,1.4,3.94,4.53v5.83h-1.63v-5.49c0-2.32-1.08-3.46-2.78-3.46Z"/>
        <path d="M792.48,90.59c0-4.43,7.09-1.97,7.09-4.57,0-1.2-1.08-1.85-2.52-1.85s-2.6.77-2.6,2.28h-1.67c0-2.58,2.07-3.58,4.27-3.58s4.15.89,4.15,3.21v7.15h-1.61v-1.87c-.69,1.44-2.09,2.07-3.62,2.07-1.87,0-3.5-.89-3.5-2.85ZM796.28,92.07c1.71,0,3.31-1.06,3.31-3.03v-.98c-1.77,1-5.45.28-5.45,2.42,0,1.06.87,1.58,2.13,1.58Z"/>
        <path d="M808.41,84.35c-1.93,0-3.39,1.52-3.39,3.8s1.46,3.8,3.39,3.8c1.69,0,3.11-1.1,3.31-2.99h1.69c-.16,2.68-2.3,4.47-5,4.47-2.89,0-5.02-2.17-5.02-5.28s2.13-5.28,5.02-5.28c2.64,0,4.7,1.71,4.98,4.25h-1.71c-.22-1.75-1.61-2.76-3.27-2.76Z"/>
        <path d="M625.76,115.39h5.61v2.24h-8.25v-1.18c0-4.72,5.61-6.3,5.61-9.92,0-1.48-.61-2.11-1.5-2.11-.96,0-1.54.57-1.54,2.24v1.22h-2.44v-1.42c0-2.78,1.77-4.27,3.98-4.27s3.94,1.48,3.94,4.35c0,4.15-4.74,6.02-5.41,8.86Z"/>
        <path d="M634.03,112.74v-5.49c0-3.39,1.65-5.08,4.37-5.08s4.37,1.69,4.37,5.08v5.49c0,3.39-1.65,5.08-4.37,5.08s-4.37-1.69-4.37-5.08ZM640.33,112.74v-5.49c0-2.13-.73-2.85-1.93-2.85s-1.93.71-1.93,2.85v5.49c0,2.13.71,2.85,1.93,2.85s1.93-.71,1.93-2.85Z"/>
        <path d="M648.08,115.39h5.61v2.24h-8.25v-1.18c0-4.72,5.61-6.3,5.61-9.92,0-1.48-.61-2.11-1.5-2.11-.96,0-1.54.57-1.54,2.24v1.22h-2.44v-1.42c0-2.78,1.77-4.27,3.98-4.27s3.94,1.48,3.94,4.35c0,4.15-4.74,6.02-5.41,8.86Z"/>
        <path d="M659.09,108.42c.51-.71,1.28-1.16,2.3-1.16,2.3,0,3.5,1.54,3.5,4.47v1.54c0,3.01-1.85,4.55-4.15,4.55s-4.19-1.48-4.19-4.27v-.61h2.44v.2c0,1.81.67,2.44,1.75,2.44,1.02,0,1.71-.69,1.71-2.32v-1.42c0-1.79-.69-2.46-1.71-2.46s-1.46.59-1.65,1.22h-2.34v-8.23h7.72v2.24h-5.39v3.8Z"/>
      </g>
    </g>
    <g>
      <path d="M947.45,94.98c-.15-.01-.28-.02-.4-.02-2.06,0-3.48.8-3.48,2.26s1.43,2.48,3.48,2.48c.12,0,.25,0,.4-.02v1.86h0c-.13,0-.26.01-.39.01-2.59,0-5.33-.9-6.06-3.11v3.11h-2.81l-4.84-5.37v5.37h-4.09c-3-.01-6.19-1.23-6.19-4.33,0-2.69,2.8-3.94,5.63-4.09v1.86c-1.72.15-2.86.93-2.86,2.23,0,1.44,1.41,2.46,3.43,2.48h1.3v-6.58c1.52,0,3.05.54,4.32,1.94,1.23,1.36,3.36,3.73,3.36,3.73v-5.67h2.74v2.98c.73-2.08,3.47-2.98,6.06-2.98.13,0,.27,0,.4.02v1.85Z"/>
      <path d="M968.66,97.32h-3.3c.17-.85.76-1.41,1.67-1.41s1.5.57,1.63,1.41M978.53,97.82c0-1.12,1.17-2.03,2.61-2.03.18,0,.35.01.52.04v-1.42c-.31-.04-.64-.06-1-.06-2.49,0-4.37,1.49-4.37,3.48,0,.15.02.29.04.43-.36-.63-1.17-.95-2.34-1.19-1.47-.3-1.67-.43-1.64-.75.03-.31.52-.59,1.26-.59.47,0,1.1.11,1.66.37v-1.48c-.54-.17-1.13-.28-1.77-.28-1.85,0-3.1.89-3.19,2.11,0,.02,0,.04,0,.06-.44-1.22-1.48-2.14-3.29-2.14-2.17,0-3.64,1.58-3.64,3.5,0,.1.02.19.03.29-.35-.88-1.35-1.33-2.89-1.67-1.65-.36-2.07-.54-2.07-1.07v-.02c0-.4.42-.71,1.23-.71s1.45.3,2.29.79v-1.93c-.72-.29-1.37-.44-2.26-.44-1.96,0-3.35.98-3.35,2.46v.02c0,1.62,1.24,2.07,3.17,2.49,1.6.35,1.93.58,1.93,1.04v.02c0,.48-.52.77-1.38.77-1.09,0-2.06-.43-2.93-1.03l-1.24,1.27c1.15.87,2.68,1.35,4.13,1.35,2.06,0,3.51-.91,3.51-2.52.43,1.42,1.71,2.36,3.45,2.36.33,0,.81-.01,1.59-.21v-1.47c-.73.21-1.04.23-1.47.21-.86-.04-1.55-.53-1.75-1.37h5.17c.01-.17.03-.28.03-.47v-.02c0-.2-.02-.39-.04-.58.38.57,1.24.8,2.45,1.04,1.44.29,1.52.51,1.52.85,0,.3-.38.64-1.23.61-.87-.03-1.9-.29-2.69-.74v1.7c.82.37,1.87.6,2.68.6,1.95,0,3.28-1.14,3.28-2.37,0-.05-.01-.09-.01-.13.34.83,1.02,1.46,1.8,1.85.77.37,1.59.49,2.26.49.4,0,.74-.03,1.07-.08v-1.44c-.17.03-.34.04-.52.04-1.44,0-2.61-.91-2.61-2.03"/>
      <path d="M973.36,55.7c-2.98-2.05-6.57-3.67-10.52-4.64-.98-.23-1.96-.45-2.97-.6-.04,0-.08,0-.12-.01-1.44,1.06-2.77,2.24-3.96,3.5,1.32-.19,2.67-.32,4.05-.37,4.81-.18,9.39.61,13.52,2.11"/>
      <path d="M954.56,65.32c1.87-1.38,3.92-2.62,6.13-3.66,5.45-2.57,11.15-3.66,16.53-3.42-4.63-2.05-9.95-3.12-15.57-2.92-2.77.1-5.45.51-7.98,1.18-1.26,1.7-2.31,3.52-3.1,5.45,1.22,1.2,2.56,2.33,3.99,3.38"/>
      <path d="M948.81,70.67c1.48-1.74,3.17-3.35,5.05-4.81-1.3-.93-2.51-1.93-3.64-2.99-.9,2.48-1.4,5.09-1.41,7.8"/>
      <path d="M950.2,60.64c.63-1.3,1.32-2.54,2.07-3.72-1.6.49-3.14,1.08-4.6,1.78.7.89,1.45,1.74,2.25,2.57.1-.21.19-.42.29-.63"/>
      <path d="M969.08,79.96c-.33,1.71-2.09,1.96-2.49,1.99-2.85.15-2.95-1.8-2-2.39,1.29-.8,4.5-.35,4.5-.35,0,.12.03.41-.01.76M945.17,77.31h-5.65c.3-1.5,1.31-2.49,2.86-2.49s2.56,1,2.79,2.49M976.68,77.72v-.05c0-2.33,2.01-4.16,4.57-4.16.14,0,.27,0,.4.01v-2.8c-.12,0-.24,0-.37,0-4.46,0-7.95,2.38-8.67,5.71-.31-2.64-2.13-4.19-5.84-4.19-.17,0-.74,0-.9,0v2.83c.73,0,1.73.13,2.17.37.65.34.99.92,1.01,1.71-.89-.1-1.9-.18-2.78-.2-3.48-.09-5.25,1.03-5.67,2.84v-1.86c0-3.16-1.93-5.63-6.02-5.63-3.76,0-5.69,2.08-5.98,4.87-.47-2.75-2.43-5.01-6.24-5.01s-6.53,2.75-6.53,6.08v.04c0,.09,0,.18.01.27-.77-1.27-2.48-1.97-4.98-2.51-2.96-.63-3.38-.94-3.38-1.87v-.04c0-.69.76-1.24,2.2-1.24.74,0,1.7.2,2.37.45v-2.99c-.63-.11-1.59-.23-2.32-.23-3.5,0-6,1.71-6,4.3v.04c0,2.83,2.23,3.62,5.68,4.36,2.87.61,3.14,1.02,3.14,1.81v.04c0,.83-.93,1.34-2.47,1.34-1.96,0-3.26-.67-4.8-1.73l-2.23,2.22c2.06,1.53,4.36,2.28,6.96,2.28,3.6,0,6.15-1.51,6.28-4.21.97,2.29,3.4,3.75,6.45,3.75.11,0,.48-.02.6-.02v-2.66c-.1,0-.45.02-.55.02-1.68,0-2.86-.78-3.23-2.29h9.01v4.73h3.79v-6.41c.07-1.17.53-2.55,2.24-2.55s2.2,1.38,2.27,2.55v6.41h3.75v-2.57c.44,1.77,2.27,2.72,4.43,2.72,1.83,0,3.08-.59,3.99-1.48v1.35h3.62v-4.88c.83,3.16,4.29,5.47,8.55,5.47.15,0,.29,0,.43,0v-2.79c-.07,0-.13,0-.2,0-2.76,0-4.77-1.77-4.77-4.21"/>
    </g>
    <g>
      <path d="M312.59,95.16h-39.42c-5.52,0-9.99,4.47-9.99,9.99h0c0,5.16,3.91,9.41,8.93,9.93v5.31l5.59-5.26h34.88c5.52,0,9.99-4.47,9.99-9.99h0c0-5.52-4.47-9.99-9.99-9.99Z" style="fill: #d0ff71;"/>
      <g>
        <polygon points="273.67 105.72 271.93 106.73 270.2 107.74 270.19 105.73 270.19 103.72 271.93 104.72 273.67 105.72" style="fill: #080717;"/>
        <line x1="275.14" y1="105.72" x2="311.58" y2="105.61" style="fill: none; stroke: #080717; stroke-linejoin: round; stroke-width: .69px;"/>
        <line x1="313.45" y1="105.6" x2="315.58" y2="105.6" style="fill: none; stroke: #080717; stroke-linejoin: round; stroke-width: .69px;"/>
        <path d="M286.52,105.68c0,.6-.48,1.08-1.07,1.08-.6,0-1.08-.48-1.08-1.07,0-.6.48-1.08,1.07-1.08.6,0,1.08.48,1.08,1.07Z" style="fill: #fff; stroke: #080717; stroke-linejoin: round; stroke-width: .69px;"/>
      </g>
      <rect x="117.02" y="-18.87" width="18.43" height="248.83" rx="9.21" ry="9.21" transform="translate(20.69 231.78) rotate(-90)" style="fill: #27eaa6;"/>
      <rect x="404.5" y="26.95" width="18.43" height="157.2" rx="9.21" ry="9.21" transform="translate(308.17 519.26) rotate(-90)" style="fill: #27eaa6;"/>
      <rect x="-51.23" y="-20.44" width="18.43" height="189.51" rx="-7.19" ry="-7.19" transform="translate(-116.34 32.3) rotate(-90)" style="fill: #27eaa6;"/>
      <rect x="290.57" y="47.53" width="18.43" height="53.58" rx="9.21" ry="9.21" transform="translate(225.47 374.1) rotate(-90)" style="fill: #27eaa6;"/>
      <rect x="227.45" y="47.53" width="18.43" height="53.58" rx="9.21" ry="9.21" transform="translate(162.34 310.98) rotate(-90)" style="fill: #8f93ff;"/>
      <rect x="122.95" y="6.16" width="18.43" height="136.32" rx="9.21" ry="9.21" transform="translate(57.85 206.49) rotate(-90)" style="fill: #27eaa6;"/>
      <rect x="424.87" y="-20.44" width="18.43" height="189.51" rx="9.21" ry="9.21" transform="translate(359.77 508.41) rotate(-90)" style="fill: none; stroke: #8f93ff; stroke-miterlimit: 10; stroke-width: 1.38px;"/>
      <rect x="-16.88" y="98.84" width="18.43" height="75.87" rx="9.21" ry="9.21" transform="translate(-144.45 129.11) rotate(-90)" style="fill: #27eaa6;"/>
      <rect x="355.68" y="64.5" width="18.43" height="144.56" rx="9.21" ry="9.21" transform="translate(228.11 501.67) rotate(-90)" style="fill: #27eaa6;"/>
      <rect x="151.97" y="21.16" width="18.43" height="231.24" rx="9.21" ry="9.21" transform="translate(24.41 297.97) rotate(-90)" style="fill: none; stroke: #8f93ff; stroke-miterlimit: 10; stroke-width: 1.38px;"/>
      <rect x="481.7" y="98.84" width="18.43" height="75.87" rx="9.21" ry="9.21" transform="translate(354.13 627.69) rotate(-90)" style="fill: #8f93ff;"/>
      <rect x="334.06" y="-41.63" width="18.43" height="169.43" rx="9.21" ry="9.21" transform="translate(300.19 386.36) rotate(-90)" style="fill: none; stroke: #8f93ff; stroke-miterlimit: 10; stroke-width: 1.38px;"/>
      <rect x="133.87" y="-61.31" width="18.82" height="208.41" rx="9.4" ry="9.4" transform="translate(100.39 186.17) rotate(-90)" style="fill: #27eaa6;"/>
      <rect x="448.53" y="25.16" width="18.43" height="35.84" rx="9.21" ry="9.21" transform="translate(414.66 500.83) rotate(-90)" style="fill: #27eaa6;"/>
      <rect x="-77.35" y="-56.78" width="18.43" height="137.28" rx="-20.25" ry="-20.25" transform="translate(-79.99 -56.28) rotate(-90)" style="fill: none; stroke: #8f93ff; stroke-miterlimit: 10; stroke-width: 1.38px;"/>
      <rect x="356.73" y=".38" width="18.43" height="22.94" rx="9.21" ry="9.21" transform="translate(354.09 377.79) rotate(-90)" style="fill: #27eaa6;"/>
      <rect x="169.39" y="-154.33" width="18.43" height="332.36" rx="9.21" ry="9.21" transform="translate(166.75 190.46) rotate(-90)" style="fill: #27eaa6;"/>
      <rect x="450.99" y="-56.78" width="18.43" height="137.28" rx="9.21" ry="9.21" transform="translate(448.35 472.06) rotate(-90)" style="fill: #8f93ff;"/>
      <g>
        <g>
          <rect x="485.03" y="33.48" width="43.82" height="18.82" rx="6.44" ry="6.44" style="fill: #ffc6de;"/>
          <polygon points="491.57 27.76 491.57 39.42 503.24 39.42 491.57 27.76" style="fill: #ffc6de;"/>
        </g>
        <path d="M491.39,45.5c1.41,0,1.41-5.21,2.83-5.21,1.41,0,1.41,5.21,2.82,5.21,1.41,0,1.41-5.21,2.83-5.21,1.41,0,1.41,5.21,2.83,5.21,1.41,0,1.41-5.21,2.83-5.21,1.41,0,1.41,5.21,2.83,5.21,1.41,0,1.41-5.21,2.83-5.21,1.41,0,1.41,5.21,2.83,5.21,1.41,0,1.41-5.21,2.83-5.21,1.42,0,1.42,5.21,2.83,5.21s1.42-5.21,2.83-5.21" style="fill: none; stroke: #000; stroke-width: .87px;"/>
      </g>
      <g>
        <circle cx="18.15" cy="43.09" r="10.36" transform="translate(-27.95 50.85) rotate(-76.72)" style="fill: #8f93ff;"/>
        <g>
          <path d="M23.6,48.07v-.61c0-2.01-1.63-3.64-3.64-3.64h-3.64c-2.01,0-3.64,1.63-3.64,3.64v.61h10.91Z" style="fill: #fff;"/>
          <path d="M20.57,39.58c0,1.34-1.09,2.42-2.42,2.42s-2.42-1.09-2.42-2.42,1.09-2.42,2.42-2.42,2.42,1.09,2.42,2.42Z" style="fill: #fff;"/>
        </g>
      </g>
    </g>
  </g>
</svg>